{"title":"Ice Age Continental Drift-720p MP4 AAC x264 BRRip 2012-CC","uid":7725713,"size":2889912033,"categoryP":"video","categoryS":"hd___movies","magnet":"?xt=urn:btih:d90e2fee8882d02d407e86c79789789ac7a8497c&amp;dn=Ice+Age+Continental+Drift-720p+MP4+AAC+x264+BRRip+2012-CC&amp;tr=udp%3A%2F%2Ftracker.openbittorrent.com%3A80&amp;tr=udp%3A%2F%2Fopen.demonii.com%3A1337&amp;tr=udp%3A%2F%2Ftracker.coppersurfer.tk%3A6969&amp;tr=udp%3A%2F%2Fexodus.desync.com%3A6969","seeders":0,"leechers":1,"uploader":"Caveman44","files":-1,"time":1350211082,"description":" &lt;a href=&quot;http://www.imdb.com/title/tt1667889/&quot; rel=&quot;nofollow&quot; target=&quot;_NEW&quot;&gt;http://www.imdb.com/title/tt1667889/&lt;/a&gt;\n\nSource: Ice.Age.Continental.Drift.2012.720p.BluRay.DTS.x264-PublicHD Thanks!\n\nSubs: Arabic, Brazilian, Danish, Dutch, English, Estonian, Farsi-Persian, Indonesian, Italian, Portuguese, Romanian, Swedish and Vietnamese.\n\nSample and Screens included.\n\nGeneral\nComplete name                            : Ice Age Continental Drift-720p MP4 AAC x264 BRRip 2012-CC.mp4\nFormat                                   : MPEG-4\nFormat profile                           : Base Media\nCodec ID                                 : isom\nFile size                                : 2.66 GiB\nDuration                                 : 1h 27mn\nOverall bit rate mode                    : Variable\nOverall bit rate                         : 4 340 Kbps\nEncoded date                             : UTC 2012-10-13 06:51:26\n\nVideo\nID                                       : 1\nFormat                                   : AVC\nFormat/Info                              : Advanced Video Codec\nFormat profile                           : &lt;a class=&quot;__cf_email__&quot; href=&quot;/cdn-cgi/l/email-protection&quot; data-cfemail=&quot;5a12333d321a166e746b&quot;&gt;[email&amp;#160;protected]&lt;/a&gt;&lt;script cf-hash='f9e31' type=&quot;text/javascript&quot;&gt;\n/* &lt;![CDATA[ */!function(){try{var t=&quot;currentScript&quot;in document?document.currentScript:function(){for(var t=document.getElementsByTagName(&quot;script&quot;),e=t.length;e--;)if(t[e].getAttribute(&quot;cf-hash&quot;))return t[e]}();if(t&amp;&amp;t.previousSibling){var e,r,n,i,c=t.previousSibling,a=c.getAttribute(&quot;data-cfemail&quot;);if(a){for(e=&quot;&quot;,r=parseInt(a.substr(0,2),16),n=2;a.length-n;n+=2)i=parseInt(a.substr(n,2),16)^r,e+=String.fromCharCode(i);e=document.createTextNode(e),c.parentNode.replaceChild(e,c)}}}catch(u){}}();/* ]]&gt; */&lt;/script&gt;\nFormat settings, CABAC                   : Yes\nFormat settings, ReFrames                : 5 frames\nCodec ID                                 : avc1\nCodec ID/Info                            : Advanced Video Coding\nDuration                                 : 1h 27mn\nBit rate                                 : 4 009 Kbps\nMaximum bit rate                         : 13.4 Mbps\nWidth                                    : 1 280 pixels\nHeight                                   : 528 pixels\nDisplay aspect ratio                     : 2.40:1\nFrame rate mode                          : Variable\nFrame rate                               : 23.976 fps\nMinimum frame rate                       : 19.048 fps\nMaximum frame rate                       : 24.390 fps\nColor space                              : YUV\nChroma subsampling                       : 4:2:0\nBit depth                                : 8 bits\nScan type                                : Progressive\nBits/(Pixel*Frame)                       : 0.247\nStream size                              : 2.42 GiB (91%)\nWriting library                          : x264 core 112\n\nAudio\nID                                       : 2\nFormat                                   : AAC\nFormat/Info                              : Advanced Audio Codec\nFormat profile                           : LC\nCodec ID                                 : 40\nDuration                                 : 1h 27mn\nBit rate mode                            : Variable\nBit rate                                 : 384 Kbps\nMaximum bit rate                         : 723 Kbps\nChannel(s)                               : 6 channels\nChannel positions                        : Front: L C R, Side: L R, LFE\nSampling rate                            : 48.0 KHz\nCompression mode                         : Lossy\nDelay relative to video                  : 83ms\nStream size                              : 241 MiB (9%)\nLanguage                                 : English\n\nEnjoy...","torrent":{"xt":"urn:btih:d90e2fee8882d02d407e86c79789789ac7a8497c","amp;dn":"Ice+Age+Continental+Drift-720p+MP4+AAC+x264+BRRip+2012-CC","amp;tr":["udp%3A%2F%2Ftracker.openbittorrent.com%3A80","udp%3A%2F%2Fopen.demonii.com%3A1337","udp%3A%2F%2Ftracker.coppersurfer.tk%3A6969","udp%3A%2F%2Fexodus.desync.com%3A6969"],"infoHash":"d90e2fee8882d02d407e86c79789789ac7a8497c","infoHashBuffer":{"type":"Buffer","data":[217,14,47,238,136,130,208,45,64,126,134,199,151,137,120,154,199,168,73,124]},"announce":[],"urlList":[]}}